<?xml version="1.0" encoding="UTF-8" standalone="no"?>
<!DOCTYPE svg PUBLIC "-//W3C//DTD SVG 1.1//EN"
 "http://www.w3.org/Graphics/SVG/1.1/DTD/svg11.dtd">
<!-- Generated by graphviz version 2.43.0 (0)
 -->
<!-- Title: undefined Pages: 1 -->
<svg width="378pt" height="252pt"
 viewBox="0.00 0.00 377.60 251.60" xmlns="http://www.w3.org/2000/svg" xmlns:xlink="http://www.w3.org/1999/xlink">
<g id="graph0" class="graph" transform="scale(1 1) rotate(0) translate(28.8 201.8)">
<title>undefined</title>
<polygon fill="white" stroke="transparent" points="-28.8,49.8 -28.8,-201.8 348.8,-201.8 348.8,49.8 -28.8,49.8"/>
<text text-anchor="start" x="116.5" y="12.6" font-family="Helvetica,sans-Serif" font-weight="bold" font-size="12.00">database.sqlite</text>
<!-- Categories -->
<g id="node1" class="node">
<title>Categories</title>
<path fill="none" stroke="black" d="M12.24,-60.53C12.24,-60.53 132.24,-60.53 132.24,-60.53 138.24,-60.53 144.24,-66.53 144.24,-72.53 144.24,-72.53 144.24,-152.53 144.24,-152.53 144.24,-158.53 138.24,-164.53 132.24,-164.53 132.24,-164.53 12.24,-164.53 12.24,-164.53 6.24,-164.53 0.24,-158.53 0.24,-152.53 0.24,-152.53 0.24,-72.53 0.24,-72.53 0.24,-66.53 6.24,-60.53 12.24,-60.53"/>
<text text-anchor="start" x="37.24" y="-144.13" font-family="Helvetica,sans-Serif" font-weight="bold" font-size="13.00">Categories</text>
<polyline fill="none" stroke="black" points="0.24,-134.53 144.24,-134.53 "/>
<text text-anchor="start" x="7.24" y="-120.93" font-family="Helvetica,sans-Serif" font-size="12.00">id* </text>
<text text-anchor="start" x="25.24" y="-120.93" font-family="Helvetica,sans-Serif" font-weight="bold" font-size="12.00">integer</text>
<text text-anchor="start" x="7.24" y="-103.93" font-family="Helvetica,sans-Serif" font-size="12.00">name </text>
<text text-anchor="start" x="41.24" y="-103.93" font-family="Helvetica,sans-Serif" font-weight="bold" font-size="12.00">varchar(255)</text>
<text text-anchor="start" x="7.24" y="-86.93" font-family="Helvetica,sans-Serif" font-size="12.00">createdAt </text>
<text text-anchor="start" x="62.24" y="-86.93" font-family="Helvetica,sans-Serif" font-weight="bold" font-size="12.00">datetime</text>
<text text-anchor="start" x="7.24" y="-69.93" font-family="Helvetica,sans-Serif" font-size="12.00">updatedAt </text>
<text text-anchor="start" x="65.24" y="-69.93" font-family="Helvetica,sans-Serif" font-weight="bold" font-size="12.00">datetime</text>
</g>
<!-- Products -->
<g id="node2" class="node">
<title>Products</title>
<path fill="none" stroke="black" d="M188.26,-0.23C188.26,-0.23 308.26,-0.23 308.26,-0.23 314.26,-0.23 320.26,-6.23 320.26,-12.23 320.26,-12.23 320.26,-160.23 320.26,-160.23 320.26,-166.23 314.26,-172.23 308.26,-172.23 308.26,-172.23 188.26,-172.23 188.26,-172.23 182.26,-172.23 176.26,-166.23 176.26,-160.23 176.26,-160.23 176.26,-12.23 176.26,-12.23 176.26,-6.23 182.26,-0.23 188.26,-0.23"/>
<text text-anchor="start" x="219.26" y="-151.83" font-family="Helvetica,sans-Serif" font-weight="bold" font-size="13.00">Products</text>
<polyline fill="none" stroke="black" points="176.26,-142.23 320.26,-142.23 "/>
<text text-anchor="start" x="183.26" y="-128.63" font-family="Helvetica,sans-Serif" font-size="12.00">id* </text>
<text text-anchor="start" x="201.26" y="-128.63" font-family="Helvetica,sans-Serif" font-weight="bold" font-size="12.00">integer</text>
<text text-anchor="start" x="183.26" y="-111.63" font-family="Helvetica,sans-Serif" font-size="12.00">brand </text>
<text text-anchor="start" x="217.26" y="-111.63" font-family="Helvetica,sans-Serif" font-weight="bold" font-size="12.00">varchar(255)</text>
<text text-anchor="start" x="183.26" y="-94.63" font-family="Helvetica,sans-Serif" font-size="12.00">name </text>
<text text-anchor="start" x="217.26" y="-94.63" font-family="Helvetica,sans-Serif" font-weight="bold" font-size="12.00">varchar(255)</text>
<text text-anchor="start" x="183.26" y="-77.63" font-family="Helvetica,sans-Serif" font-size="12.00">categoryId </text>
<text text-anchor="start" x="242.26" y="-77.63" font-family="Helvetica,sans-Serif" font-weight="bold" font-size="12.00">integer</text>
<text text-anchor="start" x="183.26" y="-60.63" font-family="Helvetica,sans-Serif" font-size="12.00">price </text>
<text text-anchor="start" x="213.26" y="-60.63" font-family="Helvetica,sans-Serif" font-weight="bold" font-size="12.00">integer</text>
<text text-anchor="start" x="183.26" y="-43.63" font-family="Helvetica,sans-Serif" font-size="12.00">discount </text>
<text text-anchor="start" x="232.26" y="-43.63" font-family="Helvetica,sans-Serif" font-weight="bold" font-size="12.00">integer</text>
<text text-anchor="start" x="183.26" y="-26.63" font-family="Helvetica,sans-Serif" font-size="12.00">createdAt </text>
<text text-anchor="start" x="238.26" y="-26.63" font-family="Helvetica,sans-Serif" font-weight="bold" font-size="12.00">datetime</text>
<text text-anchor="start" x="183.26" y="-9.63" font-family="Helvetica,sans-Serif" font-size="12.00">updatedAt </text>
<text text-anchor="start" x="241.26" y="-9.63" font-family="Helvetica,sans-Serif" font-weight="bold" font-size="12.00">datetime</text>
</g>
<!-- Products&#45;&gt;Categories -->
<g id="edge1" class="edge">
<title>Products&#45;&gt;Categories</title>
<path fill="none" stroke="black" stroke-width="0.9" d="M176.16,-97C168.49,-98.15 160.65,-99.32 152.89,-100.48"/>
<polygon fill="black" stroke="black" stroke-width="0.9" points="152.02,-97.78 144.52,-101.73 152.84,-103.32 152.02,-97.78"/>
</g>
</g>
</svg>
